<?xml version="1.0" encoding="utf-8"?>
<!-- Generator: Adobe Illustrator 16.0.0, SVG Export Plug-In . SVG Version: 6.00 Build 0)  -->
<!DOCTYPE svg PUBLIC "-//W3C//DTD SVG 1.1//EN" "http://www.w3.org/Graphics/SVG/1.1/DTD/svg11.dtd">
<svg version="1.1" id="图层_1" xmlns="http://www.w3.org/2000/svg" xmlns:xlink="http://www.w3.org/1999/xlink" x="0px" y="0px"
	 width="200px" height="200px" viewBox="0 0 200 200" enable-background="new 0 0 200 200" xml:space="preserve">
<path fill="#E15D46" d="M135.249,168.706l-35.016-12.039l-33.918,12.039v-57.995h68.934V168.706z M135.249,168.706"/>
<path fill="#F6C55A" d="M46.827,88.049c0,29.919,24.254,54.173,54.173,54.173s54.173-24.254,54.173-54.173
	c0-29.919-24.254-54.173-54.173-54.173S46.827,58.129,46.827,88.049L46.827,88.049z M46.827,88.049"/>
<path fill="#F2A840" d="M101,44.346c-24.137,0-43.703,19.566-43.703,43.703S76.863,131.752,101,131.752s43.702-19.566,43.702-43.703
	S125.137,44.346,101,44.346z M120.083,121.102c-11.808,6.817-26.357,6.817-38.166,0c-11.809-6.818-19.083-19.417-19.083-33.053
	c0-21.079,17.087-38.166,38.166-38.166c21.079,0,38.166,17.087,38.166,38.166C139.166,101.685,131.893,114.283,120.083,121.102z"/>
</svg>
