<?xml version="1.0" encoding="utf-8"?>
<!-- Generator: Adobe Illustrator 16.0.0, SVG Export Plug-In . SVG Version: 6.00 Build 0)  -->
<!DOCTYPE svg PUBLIC "-//W3C//DTD SVG 1.1//EN" "http://www.w3.org/Graphics/SVG/1.1/DTD/svg11.dtd">
<svg version="1.1" id="图层_1" xmlns="http://www.w3.org/2000/svg" xmlns:xlink="http://www.w3.org/1999/xlink" x="0px" y="0px"
	 width="200px" height="200px" viewBox="0 0 200 200" enable-background="new 0 0 200 200" xml:space="preserve">
<path fill="#E15D46" d="M135.042,169.019l-35.179-12.095l-34.074,12.095v-58.264h69.253V169.019z M135.042,169.019"/>
<path fill="#B5B4B1" d="M46.212,87.987c0,30.058,24.365,54.423,54.423,54.423s54.423-24.365,54.423-54.423
	c0-30.057-24.365-54.423-54.423-54.423S46.212,57.931,46.212,87.987L46.212,87.987z M46.212,87.987"/>
<path fill="#999898" d="M100.635,44.083c-24.248,0-43.904,19.657-43.904,43.905c0,24.248,19.656,43.905,43.904,43.905
	s43.904-19.657,43.904-43.905C144.539,63.74,124.883,44.083,100.635,44.083z M119.806,121.193c-11.863,6.849-26.479,6.849-38.343,0
	c-11.863-6.85-19.17-19.508-19.17-33.206c0-21.176,17.166-38.342,38.342-38.342c21.177,0,38.343,17.166,38.343,38.342
	C138.978,101.686,131.67,114.344,119.806,121.193z"/>
</svg>
