<?xml version="1.0" encoding="utf-8"?>
<!-- Generator: Adobe Illustrator 16.0.0, SVG Export Plug-In . SVG Version: 6.00 Build 0)  -->
<!DOCTYPE svg PUBLIC "-//W3C//DTD SVG 1.1//EN" "http://www.w3.org/Graphics/SVG/1.1/DTD/svg11.dtd">
<svg version="1.1" id="图层_1" xmlns="http://www.w3.org/2000/svg" xmlns:xlink="http://www.w3.org/1999/xlink" x="0px" y="0px"
	 width="200px" height="200px" viewBox="0 0 200 200" enable-background="new 0 0 200 200" xml:space="preserve">
<path fill="#E15D46" d="M133.941,166.736L99.249,154.81l-33.604,11.927v-57.458h68.297V166.736z M133.941,166.736"/>
<path fill="#D0B075" d="M46.337,86.826c0,29.642,24.03,53.671,53.671,53.671c29.643,0,53.671-24.029,53.671-53.671
	s-24.028-53.671-53.671-53.671C70.367,33.155,46.337,57.184,46.337,86.826L46.337,86.826z M46.337,86.826"/>
<path fill="#B28A56" d="M100.009,41.57c-24.994,0-45.255,20.262-45.255,45.255s20.261,45.255,45.255,45.255
	s45.256-20.262,45.256-45.255S125.003,41.57,100.009,41.57z M119.77,121.053c-12.228,7.06-27.294,7.06-39.521,0
	c-12.229-7.06-19.761-20.107-19.761-34.227c0-21.827,17.694-39.521,39.521-39.521s39.521,17.694,39.521,39.521
	C139.53,100.945,131.998,113.993,119.77,121.053z"/>
</svg>
