<svg xmlns="http://www.w3.org/2000/svg" viewBox="0 0 100 100">
<path d="M50.349,98.234c-1.585,0-3.171-0.674-4.276-1.825c-0.914-0.962-9.179-9.659-17.397-20.712
	C17.623,60.801,12,48.977,12,40.471C12,19.326,29.205,2.123,50.349,2.123c21.146,0,38.351,17.203,38.351,38.348
	c0,5.142-1.97,11.438-5.863,18.695c-3.797,7.063-9.468,15.232-16.868,24.315l-0.047,0.047L54.865,96.216
	c-1.104,1.299-2.737,2.019-4.372,2.019H50.349L50.349,98.234z M50.349,7.41c-18.212,0-33.014,14.801-33.014,33.014
	c0,7.208,5.382,18.309,15.618,32.051c8.17,11.007,16.628,19.849,16.964,20.233c0.096,0.096,0.288,0.193,0.434,0.193h0.047
	c0.145,0,0.288-0.098,0.385-0.193l11.053-12.639c7.21-8.844,12.688-16.725,16.294-23.451c3.508-6.488,5.237-11.966,5.237-16.195
	C83.366,22.259,68.565,7.41,50.349,7.41L50.349,7.41L50.349,7.41z M50.349,58.252c-9.803,0-17.828-7.977-17.828-17.829
	s8.025-17.781,17.828-17.781c9.807,0,17.831,7.979,17.831,17.829C68.18,50.323,60.155,58.252,50.349,58.252z M50.349,27.93
	c-6.872,0-12.496,5.622-12.496,12.495c0,6.872,5.624,12.493,12.496,12.493c6.873,0,12.496-5.622,12.496-12.493
	C62.845,33.552,57.222,27.93,50.349,27.93z"/>
</svg>
