<?xml version="1.0" encoding="utf-8"?>
<!-- Generator: Adobe Illustrator 16.0.0, SVG Export Plug-In . SVG Version: 6.00 Build 0)  -->
<!DOCTYPE svg PUBLIC "-//W3C//DTD SVG 1.1//EN" "http://www.w3.org/Graphics/SVG/1.1/DTD/svg11.dtd">
<svg version="1.1" id="图层_1" xmlns="http://www.w3.org/2000/svg" xmlns:xlink="http://www.w3.org/1999/xlink" x="0px" y="0px"
	 width="200px" height="200px" viewBox="0 0 200 200" enable-background="new 0 0 200 200" xml:space="preserve">
<path d="M100.368,186.918c-2.86,0-5.721-1.213-7.714-3.293c-1.647-1.734-16.557-17.424-31.378-37.359
	C41.338,119.394,31.196,98.07,31.196,82.727c0-38.14,31.032-69.172,69.172-69.172c38.141,0,69.173,31.032,69.173,69.172
	c0,9.275-3.555,20.63-10.576,33.719c-6.848,12.742-17.076,27.479-30.426,43.861l-0.086,0.087l-19.937,22.883
	c-1.994,2.341-4.94,3.641-7.888,3.641H100.368z M100.368,23.09c-32.853,0-59.55,26.698-59.55,59.551
	c0,13.001,9.708,33.025,28.172,57.816c14.736,19.851,29.992,35.8,30.599,36.494c0.173,0.172,0.52,0.346,0.78,0.346h0.087
	c0.26,0,0.52-0.174,0.693-0.346l19.937-22.799c13.003-15.949,22.885-30.164,29.386-42.3c6.328-11.702,9.448-21.584,9.448-29.211
	C159.919,49.875,133.221,23.09,100.368,23.09L100.368,23.09z M100.368,114.8c-17.683,0-32.159-14.39-32.159-32.159
	c0-17.77,14.476-32.073,32.159-32.073c17.683,0,32.159,14.39,32.159,32.159C132.527,100.497,118.051,114.8,100.368,114.8z
	 M100.368,60.104c-12.395,0-22.538,10.142-22.538,22.538c0,12.395,10.143,22.537,22.538,22.537
	c12.396,0,22.537-10.142,22.537-22.537C122.905,70.245,112.764,60.104,100.368,60.104z"/>
</svg>
