<?xml version="1.0" encoding="utf-8"?>
<!-- Generator: Adobe Illustrator 16.0.0, SVG Export Plug-In . SVG Version: 6.00 Build 0)  -->
<!DOCTYPE svg PUBLIC "-//W3C//DTD SVG 1.1//EN" "http://www.w3.org/Graphics/SVG/1.1/DTD/svg11.dtd">
<svg version="1.1" id="图层_1" xmlns="http://www.w3.org/2000/svg" xmlns:xlink="http://www.w3.org/1999/xlink" x="0px" y="0px"
	 width="200px" height="200px" viewBox="0 0 200 200" enable-background="new 0 0 200 200" xml:space="preserve">
<path d="M74.309,100.939c2.686,0,4.864-2.179,4.864-4.858V67.715c0-5.171,4.935-9.38,11.004-9.38h23.644
	c6.074,0,11.016,4.209,11.016,9.38v28.367c0,2.68,2.18,4.857,4.859,4.857s4.857-2.177,4.857-4.857V67.715
	c0-10.532-9.298-19.098-20.732-19.098H90.177c-11.43,0-20.728,8.566-20.728,19.098v28.367
	C69.45,98.762,71.628,100.939,74.309,100.939z"/>
<path d="M132.051,104.211l-18.242-0.372l-5.975-17.02c-0.873-2.468-3.217-4.121-5.832-4.121c-2.615,0-4.959,1.659-5.839,4.126
	l-5.968,17.014l-18.248,0.372c-2.633,0.06-4.947,1.782-5.756,4.291c-0.809,2.51,0.065,5.254,2.179,6.837l14.481,10.868
	l-5.266,17.196c-0.762,2.51,0.147,5.236,2.261,6.789c0.531,0.385,1.11,0.68,1.724,0.879c0.307,0.107,0.572,0.16,0.755,0.185
	c0.124,0.029,0.319,0.063,0.49,0.083l0.691,0.047c0.437,0,0.791-0.054,1.003-0.095c0.23-0.029,0.514-0.082,0.844-0.183
	c0.602-0.195,1.163-0.467,1.659-0.815l14.989-10.317l14.987,10.317c1.033,0.715,2.25,1.093,3.509,1.093
	c1.328,0,2.591-0.412,3.66-1.191c2.112-1.553,3.021-4.286,2.254-6.795l-5.261-17.191l14.494-10.874
	c2.097-1.583,2.969-4.333,2.16-6.837C137.004,105.986,134.689,104.27,132.051,104.211z M111.564,122.713l-0.342,0.253l5.035,16.453
	l-14.257-9.817l-14.257,9.817l5.03-16.453l-13.802-10.354l16.896-0.342l0.419-0.006l5.715-16.265l5.566,15.869l0.143,0.396
	l17.32,0.35L111.564,122.713z"/>
<path d="M39.743,39.022C53.002,25.771,70.097,17.17,88.985,14.465c23.089-3.328,46.101,2.56,64.771,16.553
	c18.682,13.977,30.795,34.412,34.109,57.501c6.848,47.697-26.387,92.032-74.051,98.901c-19.987,2.867-40.483-1.322-57.71-11.792
	c-2.948-1.783-3.887-5.623-2.095-8.558c1.8-2.937,5.623-3.893,8.566-2.101c14.761,8.959,32.326,12.552,49.464,10.095
	c40.845-5.861,69.336-43.892,63.47-84.771c-2.846-19.796-13.221-37.305-29.237-49.276c-16.006-12.014-35.722-17.031-55.513-14.198
	c-40.888,5.87-69.366,43.892-63.491,84.771c1.544,10.7,5.256,20.691,11.058,29.702c1.86,2.909,1.016,6.783-1.869,8.644
	c-2.901,1.86-6.758,1.023-8.626-1.869c-6.775-10.545-11.114-22.209-12.918-34.701c-3.319-23.089,2.568-46.11,16.562-64.788
	C34.022,45.166,36.787,41.975,39.743,39.022L39.743,39.022L39.743,39.022z"/>
</svg>
