<?xml version="1.0" encoding="utf-8"?>
<!-- Generator: Adobe Illustrator 16.0.0, SVG Export Plug-In . SVG Version: 6.00 Build 0)  -->
<!DOCTYPE svg PUBLIC "-//W3C//DTD SVG 1.1//EN" "http://www.w3.org/Graphics/SVG/1.1/DTD/svg11.dtd">
<svg version="1.1" id="图层_1" xmlns="http://www.w3.org/2000/svg" xmlns:xlink="http://www.w3.org/1999/xlink" x="0px" y="0px"
	 width="204.094px" height="204.094px" viewBox="-2.047 -2.047 204.094 204.094"
	 enable-background="new -2.047 -2.047 204.094 204.094" xml:space="preserve">
<path d="M50.545,18.844c8.46,0,16.431,3.297,22.409,9.293s9.293,13.949,9.293,22.409c0,7.174-0.018,21.485-0.018,31.684
	c-10.199,0-24.51,0.018-31.684,0.018c-8.46,0-16.431-3.297-22.409-9.293s-9.293-13.949-9.293-22.409s3.297-16.431,9.293-22.409
	S42.085,18.844,50.545,18.844 M50.545,7.25C26.633,7.25,7.25,26.633,7.25,50.545s19.383,43.295,43.295,43.295
	c11.956,0,43.259-0.018,43.259-0.018s0.036-31.321,0.036-43.277C93.841,26.633,74.458,7.25,50.545,7.25z M149.455,18.844
	c8.459,0,16.43,3.297,22.408,9.293c5.978,5.996,9.293,13.949,9.293,22.409s-3.297,16.431-9.293,22.409s-13.949,9.293-22.408,9.293
	c-7.174,0-21.485-0.018-31.684-0.018c-0.019-10.199-0.019-24.51-0.019-31.684c0-8.46,3.297-16.431,9.293-22.409
	S140.995,18.844,149.455,18.844 M149.455,7.25c-23.912,0-43.296,19.383-43.296,43.295c0,11.956,0.036,43.277,0.036,43.277
	s31.303,0.018,43.26,0.018c23.912,0,43.295-19.383,43.295-43.295S173.367,7.25,149.455,7.25z M50.545,117.753
	c7.174,0,21.485,0.019,31.684,0.019c0.018,10.198,0.018,24.51,0.018,31.684c0,8.459-3.297,16.43-9.293,22.408
	c-5.996,5.978-13.949,9.293-22.409,9.293s-16.431-3.297-22.409-9.293s-9.293-13.949-9.293-22.408c0-8.46,3.297-16.431,9.293-22.409
	C34.133,121.068,42.085,117.753,50.545,117.753 M50.545,106.159c-23.912,0-43.295,19.384-43.295,43.296s19.383,43.295,43.295,43.295
	s43.295-19.383,43.295-43.295c0-11.957-0.036-43.277-0.036-43.277S62.501,106.159,50.545,106.159z M149.455,192.75
	c-11.558,0-22.445-4.511-30.615-12.681s-12.681-19.058-12.681-30.614c0-10.235,0.036-37.209,0.036-37.48
	c0-3.207,2.591-5.797,5.797-5.797s5.797,2.608,5.797,5.797c0,0.271-0.036,27.245-0.036,37.462c0,17.481,14.221,31.701,31.702,31.701
	c17.48,0,31.701-14.22,31.701-31.701s-14.221-31.702-31.701-31.702h-8.75c-3.207,0-5.797-2.59-5.797-5.797
	c0-3.206,2.59-5.797,5.797-5.797h8.75c11.557,0,22.444,4.511,30.614,12.681c8.17,8.171,12.681,19.058,12.681,30.615
	s-4.511,22.444-12.681,30.614C171.899,188.239,161.012,192.75,149.455,192.75z"/>
</svg>
