<?xml version="1.0" encoding="utf-8"?>
<!-- Generator: Adobe Illustrator 16.0.0, SVG Export Plug-In . SVG Version: 6.00 Build 0)  -->
<!DOCTYPE svg PUBLIC "-//W3C//DTD SVG 1.1//EN" "http://www.w3.org/Graphics/SVG/1.1/DTD/svg11.dtd">
<svg version="1.1" id="图层_1" xmlns="http://www.w3.org/2000/svg" xmlns:xlink="http://www.w3.org/1999/xlink" x="0px" y="0px"
	 width="200px" height="200px" viewBox="0 0 200 200" enable-background="new 0 0 200 200" xml:space="preserve">
<g>
	<rect x="75.414" y="84.801" width="8.105" height="30.396"/>
	<path d="M173.564,78.277c4.336-0.713,7.49-4.41,7.49-8.795v-25.41c0-4.92-3.996-8.916-8.916-8.916H27.861
		c-4.912,0-8.916,3.996-8.916,8.916v25.41c0,4.385,3.152,8.082,7.498,8.795C36.973,79.988,44.615,89.123,44.615,100
		c0,10.869-7.643,20.004-18.172,21.723c-4.346,0.705-7.498,4.4-7.498,8.795v25.41c0,4.912,4.004,8.916,8.916,8.916h144.277
		c4.92,0,8.916-4.004,8.916-8.916v-25.41c0-4.393-3.152-8.09-7.49-8.795c-10.537-1.719-18.18-10.854-18.18-21.723
		C155.385,89.123,163.027,79.988,173.564,78.277z M147.279,100c0,14.865,10.504,27.363,24.98,29.723
		c0.396,0.064,0.689,0.396,0.689,0.795v25.41c0,0.445-0.365,0.811-0.811,0.811H83.521v-26.342h-8.105v26.342H27.861
		c-0.445,0-0.811-0.365-0.811-0.811v-25.41c0-0.396,0.291-0.729,0.689-0.795c14.477-2.359,24.98-14.857,24.98-29.723
		S42.217,72.627,27.74,70.277c-0.396-0.064-0.689-0.404-0.689-0.795v-25.41c0-0.445,0.365-0.811,0.811-0.811h47.555v26.344h8.105
		V43.262h88.617c0.445,0,0.811,0.365,0.811,0.811v25.41c0,0.389-0.291,0.73-0.689,0.795C157.783,72.627,147.279,85.135,147.279,100z
		"/>
</g>
</svg>
