<?xml version="1.0" encoding="utf-8"?>
<!-- Generator: Adobe Illustrator 16.0.0, SVG Export Plug-In . SVG Version: 6.00 Build 0)  -->
<!DOCTYPE svg PUBLIC "-//W3C//DTD SVG 1.1//EN" "http://www.w3.org/Graphics/SVG/1.1/DTD/svg11.dtd">
<svg version="1.1" id="图层_1" xmlns="http://www.w3.org/2000/svg" xmlns:xlink="http://www.w3.org/1999/xlink" x="0px" y="0px"
	 width="204.094px" height="204.094px" viewBox="-1.754 -2.047 204.094 204.094"
	 enable-background="new -1.754 -2.047 204.094 204.094" xml:space="preserve">
<path d="M155.651,161.423H45.125c-3.28,0-6.065-2.343-6.638-5.57L22.479,64.954c-0.496-2.786,0.832-5.597,3.279-7.002
	c2.473-1.405,5.544-1.119,7.704,0.703l33.736,28.712L94.74,44.753c2.473-3.852,8.825-3.852,11.297,0l27.54,42.587l33.709-28.713
	c2.161-1.848,5.259-2.107,7.705-0.703c2.474,1.406,3.774,4.217,3.28,7.003l-15.982,90.95
	C161.716,159.08,158.931,161.423,155.651,161.423L155.651,161.423z M50.775,147.965h99.227l11.793-66.924l-25.327,21.552
	c-1.484,1.25-3.412,1.797-5.338,1.537c-1.926-0.287-3.618-1.38-4.686-2.993l-26.057-40.321l-26.056,40.321
	c-1.068,1.639-2.76,2.733-4.687,2.993c-1.952,0.286-3.878-0.287-5.336-1.537L38.982,81.041L50.775,147.965L50.775,147.965z
	 M155.651,183.185H45.125c-3.723,0-6.742-3.019-6.742-6.742c0-3.723,3.019-6.741,6.742-6.741h110.526
	c3.723,0,6.743,3.019,6.743,6.741C162.395,180.166,159.374,183.185,155.651,183.185L155.651,183.185z M9.339,45.023
	c0,5.959,4.831,10.79,10.79,10.79s10.79-4.831,10.79-10.79c0-5.959-4.831-10.791-10.79-10.791S9.339,39.064,9.339,45.023z
	 M89.917,27.853c0,5.959,4.831,10.79,10.79,10.79c5.96,0,10.79-4.831,10.79-10.79s-4.83-10.79-10.79-10.79
	C94.748,17.063,89.917,21.894,89.917,27.853z M169.919,44.409c0,5.959,4.83,10.791,10.789,10.791c5.96,0,10.791-4.831,10.791-10.791
	s-4.831-10.791-10.791-10.791C174.749,33.618,169.919,38.449,169.919,44.409z"/>
</svg>
