<svg xmlns="http://www.w3.org/2000/svg"  viewBox="0 0 200 200" >
<path d="M173.584,66.291v-7c0-7.41-6.008-13.417-13.418-13.417l0,0H39.833c-7.41,0-13.417,6.007-13.417,13.417l0,0
	v34.167c0,2.301,1.866,4.166,4.167,4.166c2.301,0,4.167-1.865,4.167-4.166V59.291c0-2.807,2.276-5.083,5.083-5.083l0,0h120.333
	c2.809,0,5.084,2.276,5.084,5.083l0,0v2.75h-37.5c-9.965,0.678-17.492,9.305-16.814,19.269c0.613,9.02,7.794,16.202,16.814,16.815
	h37.5v44.416c0,2.809-2.275,5.084-5.084,5.084l0,0H39.833c-2.808,0-5.083-2.275-5.083-5.084l0,0v-19.916h60.833l-9.167,9.166
	c-1.634,1.635-1.634,4.283,0,5.918c1.634,1.633,4.283,1.633,5.917,0l16-16.168c0.784-0.769,1.234-1.816,1.25-2.916
	c-0.023-1.198-0.572-2.325-1.5-3.084L92.167,99.624c-1.634-1.634-4.283-1.634-5.917,0s-1.634,4.283,0,5.916l9,9H30.583
	c-2.301,0-4.167,1.866-4.167,4.168v23.832c0,7.41,6.007,13.418,13.417,13.418l0,0h120.333c7.41,0,13.418-6.008,13.418-13.418l0,0
	v-48.5c0-2.301-1.866-4.166-4.168-4.166H127.75c-5.361-0.497-9.305-5.247-8.809-10.609c0.434-4.673,4.135-8.375,8.809-8.808h41.666
	C171.718,70.458,173.584,68.592,173.584,66.291L173.584,66.291z"/>
<path d="M127.334,75.958c-2.302,0-4.168,1.865-4.168,4.167s1.866,4.166,4.168,4.166h10.5
	c2.301-0.001,4.165-1.867,4.164-4.168c-0.002-2.299-1.865-4.163-4.164-4.164H127.334z"/>
</svg>
