<?xml version="1.0" encoding="utf-8"?>
<!-- Generator: Adobe Illustrator 16.0.0, SVG Export Plug-In . SVG Version: 6.00 Build 0)  -->
<!DOCTYPE svg PUBLIC "-//W3C//DTD SVG 1.1//EN" "http://www.w3.org/Graphics/SVG/1.1/DTD/svg11.dtd">
<svg version="1.1" id="图层_1" xmlns="http://www.w3.org/2000/svg" xmlns:xlink="http://www.w3.org/1999/xlink" x="0px" y="0px"
	 width="200px" height="200px" viewBox="0 0 200 200" enable-background="new 0 0 200 200" xml:space="preserve">
<g>
	<path d="M179.16,84.453c-1.406-7.461-6.582-12.402-13.398-12.402h-0.293c-6.895,0-12.52-5.645-12.52-12.578
		c0-1.563,0.762-3.848,1.094-4.648c2.93-6.602,0.684-14.707-5.41-18.984l-19.102-10.684l-0.781-0.371
		c-1.914-0.84-4.043-1.23-6.152-1.23c-4.414,0-8.867,1.719-11.854,4.824c-2.853,2.949-7.97,6.367-10.313,6.367
		c-2.363,0-7.52-3.496-10.352-6.484c-2.988-3.164-7.441-4.941-11.895-4.941c-2.09,0-4.199,0.391-6.152,1.229L52.09,35.469
		l-0.781,0.508c-5.938,4.141-8.184,12.227-5.273,18.828c0.371,0.859,1.133,3.125,1.133,4.688c0,6.934-5.625,12.578-13.008,12.578
		h-0.313c-6.328,0-11.504,4.941-12.91,12.52c-0.391,2.129-1.641,9.551-1.641,15.703c0,6.172,1.25,13.574,1.66,15.84
		c1.406,7.423,6.602,12.402,12.93,12.402h0.762c6.895,0,12.52,5.646,12.52,12.56c0,1.504-0.703,3.711-1.113,4.647
		c-2.91,6.603-0.684,14.688,5.293,18.905l18.828,10.625l0.762,0.371c1.914,0.859,4.023,1.25,6.152,1.25
		c4.492,0,9.043-1.815,12.012-5.078c2.793-3.026,8.203-6.776,10.527-6.776c2.423,0,7.695,3.729,10.586,6.914
		c2.988,3.301,7.345,5.215,11.992,5.215c2.188,0,4.258-0.41,6.19-1.25l19.59-10.801l0.781-0.509
		c5.918-4.141,8.164-12.227,5.254-18.809c-0.352-0.859-1.112-3.125-1.112-4.688c0-6.934,5.625-12.559,13.047-12.559
		c6.367-0.078,11.737-4.863,13.185-12.521c0.391-2.129,1.641-9.552,1.641-15.703C180.82,94.141,179.551,86.699,179.16,84.453z
		 M167.813,113.906c-0.272,1.484-1.055,3.066-1.992,3.066c-13.633,0-24.413,10.586-24.413,24.102c0,4.004,1.543,8.008,2.012,9.141
		c0.781,1.758,0.156,3.945-1.229,4.902l-0.039,0.02l-18.652,10.293c-0.371,0.117-0.781,0.176-1.25,0.176
		c-1.348,0-2.617-0.526-3.398-1.387c-1.055-1.152-10.059-10.723-19.16-10.723c-9.258,0-18.926,10.391-19.023,10.488
		c-0.742,0.82-2.188,1.367-3.535,1.367c-0.508,0-0.996-0.078-1.387-0.234l-0.195-0.098l-17.832-10.06
		c-1.25-1.094-1.758-3.104-1.094-4.569c0.41-0.978,2.09-5.156,2.09-9.316c0-13.281-10.801-24.102-24.063-24.102h-0.762
		c-0.273-0.06-1.191-0.938-1.602-3.009c-0.332-1.815-1.445-8.534-1.445-13.691c0-4.102,0.742-9.727,1.445-13.652
		c0.371-1.973,1.23-2.91,1.504-3.047h0.371c13.75-0.02,24.531-10.605,24.531-24.121c0-4.16-1.68-8.359-2.031-9.16
		c-0.742-1.68-0.176-3.789,1.133-4.805l0.195-0.117L76.895,35c0.371-0.117,0.82-0.176,1.27-0.176c1.348,0,2.754,0.547,3.516,1.348
		c0.391,0.41,9.668,10.078,18.73,10.078c8.944,0,18.202-9.473,18.594-9.883c0.763-0.781,2.207-1.328,3.556-1.328
		c0.526,0,1.016,0.078,1.405,0.234l0.156,0.078l18.146,10.137c1.309,1.152,1.854,3.145,1.19,4.648
		c-0.41,0.957-2.09,5.117-2.09,9.316c0,13.301,10.78,24.102,24.063,24.102c1.641,0,2.168,2.109,2.344,3.008
		c0.703,3.848,1.465,9.531,1.465,13.691C169.277,104.473,168.496,110.234,167.813,113.906z"/>
	<path d="M100.059,69.473c-16.992,0-30.781,13.77-30.781,30.762s13.77,30.781,30.781,30.781c16.992,0,30.761-13.77,30.761-30.781
		C130.82,83.242,117.051,69.473,100.059,69.473z M100.059,119.473c-10.605,0-19.238-8.613-19.238-19.219
		c0-10.606,8.633-19.219,19.238-19.219s19.218,8.613,19.218,19.219C119.277,110.84,110.664,119.473,100.059,119.473z"/>
</g>
</svg>
