<?xml version="1.0" standalone="no"?><!DOCTYPE svg PUBLIC "-//W3C//DTD SVG 1.1//EN" "http://www.w3.org/Graphics/SVG/1.1/DTD/svg11.dtd"><svg t="1560132087599" class="icon" style="" viewBox="0 0 1024 1024" version="1.1" xmlns="http://www.w3.org/2000/svg" p-id="5302" xmlns:xlink="http://www.w3.org/1999/xlink" width="200" height="200"><defs><style type="text/css"></style></defs><path d="M198.364325 194.675818C266.253528 126.830617 353.781 82.793658 450.482413 68.945255c118.216425-17.038048 236.039901 13.105482 331.626933 84.752266 95.653547 71.559802 157.666926 176.190815 174.638459 294.406217 35.059494 244.209978-135.100978 471.208968-379.136993 506.376932-102.33676 14.678304-207.27374-6.771217-295.476595-60.375066-15.09479-9.131985-19.899212-28.79072-10.725272-43.817971 9.217942-15.030321 28.789697-19.922748 43.861974-10.746762 75.577303 45.870724 165.507498 64.262606 253.252935 51.681056 209.128995-30.013571 355.00027-224.725204 324.96521-434.030208C878.919229 355.837334 825.796334 266.191618 743.795738 204.89967c-81.957617-61.511959-182.895517-87.198991-284.22739-72.694649-209.347982 30.055526-355.153766 224.725204-325.075727 434.030208 7.90811 54.782697 26.91193 105.939821 56.618509 152.074557 9.523911 14.896268 5.198395 34.729989-9.567913 44.2539-14.854313 9.523911-34.601052 5.242398-44.166919-9.567913-34.68701-53.997821-56.901964-113.716948-66.142419-177.675632-16.994046-118.215402 13.149485-236.083903 84.796268-331.714937C169.072185 226.131227 183.226556 209.792097 198.364325 194.675818L198.364325 194.675818 198.364325 194.675818zM322.675562 354.61346c-18.458397 0-28.309766-9.828856-29.642111-29.575596 1.332345-18.435884 11.183713-28.264741 29.642111-29.619598l378.700041 0c17.081027 1.354857 26.954909 11.184737 29.598108 29.619598-2.6432 19.74674-12.516058 29.575596-29.598108 29.575596l-140.039453 0 0 104.58701 136.085398 0c17.10354 1.310855 26.932396 11.795651 29.598108 31.54239-2.664689 19.702738-12.494569 29.619598-29.598108 29.619598L561.337173 520.362458l0 128.177288 149.890822 0c18.414395 1.354857 28.942169 10.5728 31.56388 27.608801 0 19.74674-9.195429 30.231535-27.609825 31.586392L312.780191 707.73494c-17.081027-1.354857-26.299993-11.839653-27.609825-31.586392 1.309832-17.036002 10.528797-26.253944 27.609825-27.608801l39.449477 0L352.229668 437.531961c0-19.788695 9.872858-30.973432 29.619598-33.55114 19.702738 2.578732 30.231535 13.762445 31.541367 33.55114l0 211.008808 84.84027 0L498.230903 354.61346 322.675562 354.61346 322.675562 354.61346zM322.675562 354.61346" p-id="5303"></path></svg>