<?xml version="1.0" encoding="utf-8"?>
<!-- Generator: Adobe Illustrator 16.0.0, SVG Export Plug-In . SVG Version: 6.00 Build 0)  -->
<!DOCTYPE svg PUBLIC "-//W3C//DTD SVG 1.1//EN" "http://www.w3.org/Graphics/SVG/1.1/DTD/svg11.dtd">
<svg version="1.1" id="图层_1" xmlns="http://www.w3.org/2000/svg" xmlns:xlink="http://www.w3.org/1999/xlink" x="0px" y="0px"
	 width="200px" height="200px" viewBox="0 0 200 200" enable-background="new 0 0 200 200" xml:space="preserve">
<path d="M162.568,37.43C145.865,20.704,123.639,11.5,100,11.5c-23.638,0-45.865,9.204-62.584,25.93
	C20.767,53.988,11.435,76.519,11.5,100c0,17.229,4.956,33.926,14.314,48.284c1.756,2.913,5.541,3.851,8.455,2.095
	c2.913-1.756,3.851-5.541,2.095-8.454c-0.075-0.124-0.155-0.247-0.239-0.366C28.068,129.197,23.791,114.756,23.816,100
	c0-42.008,34.168-76.184,76.184-76.184c42,0,76.184,34.176,76.184,76.184S142,176.191,100,176.191
	c-13.917,0-27.523-3.784-39.353-10.938c-2.968-1.663-6.722-0.604-8.385,2.364c-1.583,2.826-0.707,6.395,2.005,8.167
	C68.066,184.115,83.881,188.513,100,188.5c23.637,0,45.865-9.204,62.568-25.923C179.297,145.865,188.5,123.639,188.5,100
	C188.5,76.363,179.297,54.135,162.568,37.43z"/>
<path d="M120.797,106.35c13.146-2.38,23.12-13.939,23.12-27.766c0-15.64-12.693-28.333-28.334-28.333c-11.446,0-45.333,0-45.333,0
	c-3.173,0-5.667,2.493-5.667,5.667v90.667c0,3.174,2.493,5.667,5.667,5.667s5.667-2.493,5.667-5.667v-39.666c0,0,17.227,0,32.187,0
	c0.453,0.906,1.02,1.927,1.474,2.833l22.666,39.213c1.587,2.721,4.987,3.627,7.707,2.04c2.72-1.586,3.627-4.986,2.04-7.706
	L120.797,106.35z M75.917,95.583v-34h39.667c9.407,0,17,7.593,17,17s-7.593,17-17,17C106.177,95.583,75.917,95.583,75.917,95.583z"
	/>
</svg>
