<?xml version="1.0" encoding="utf-8"?>
<!-- Generator: Adobe Illustrator 16.0.0, SVG Export Plug-In . SVG Version: 6.00 Build 0)  -->
<!DOCTYPE svg PUBLIC "-//W3C//DTD SVG 1.1//EN" "http://www.w3.org/Graphics/SVG/1.1/DTD/svg11.dtd">
<svg version="1.1" id="图层_1" xmlns="http://www.w3.org/2000/svg" xmlns:xlink="http://www.w3.org/1999/xlink" x="0px" y="0px"
	 width="204.094px" height="204.094px" viewBox="-2.047 -2.047 204.094 204.094"
	 enable-background="new -2.047 -2.047 204.094 204.094" xml:space="preserve">
<path d="M184.66,88.56l-73.98-73.98c-6.1-6.1-16.02-6.1-22.12,0L14.58,88.56c-4.58,4.58-5.72,11.06-3.44,17.16
	c2.67,5.73,8.01,9.53,14.5,9.53h1.52v53.78c0.103,11.542,9.438,20.872,20.98,20.97h26.31c8.3,0,9.841-5.62,9.92-8.75v-54.18h30.5
	v53.347c0,5.005,2.38,9.375,11.44,9.583H151.1c0.047,0,0.094,0,0.142,0c11.549-0.039,20.879-9.432,20.84-20.98v-30.5
	c0-3.049-2.67-5.72-5.722-5.72c-3.049,0-5.719,2.671-5.719,5.72v30.512c0,5.328-4.201,9.529-9.531,9.529h-24.799v-51.479
	c0-6.49-5.34-11.438-11.439-11.438H84.36c-6.48,0-11.44,5.33-11.44,11.43v51.49H48.14c-5.34,0-9.54-4.201-9.54-9.541V111.82
	c0-0.604,1.337-7.695-5.34-8.01h-7.62c-2.29,0-3.44-1.9-3.82-2.67c-0.85-1.515-0.534-3.415,0.76-4.572l73.99-73.99
	c1.9-1.52,4.571-1.52,6.1,0l73.98,73.99c1.529,1.9,1.148,3.81,0.77,4.572c-0.391,0.77-1.15,2.67-3.82,2.67h-6.1
	c-3.05,0-5.721,2.67-5.721,5.72c0.08,3.126,2.595,5.641,5.721,5.72h6.1c6.49,0,11.82-3.811,14.49-9.53
	C190.38,99.62,189.24,93.14,184.66,88.56z"/>
</svg>
