<?xml version="1.0" encoding="utf-8"?>
<!-- Generator: Adobe Illustrator 16.0.0, SVG Export Plug-In . SVG Version: 6.00 Build 0)  -->
<!DOCTYPE svg PUBLIC "-//W3C//DTD SVG 1.1//EN" "http://www.w3.org/Graphics/SVG/1.1/DTD/svg11.dtd">
<svg version="1.1" id="图层_1" xmlns="http://www.w3.org/2000/svg" xmlns:xlink="http://www.w3.org/1999/xlink" x="0px" y="0px"
	 width="204.094px" height="204.094px" viewBox="-2.047 -2.047 204.094 204.094"
	 enable-background="new -2.047 -2.047 204.094 204.094" xml:space="preserve">
<path d="M41.83,188C25.923,188,13,174.255,13,157.352V42.649C13,25.745,26.82,12,43.8,12h101.778
	c16.929,0.009,30.655,13.72,30.683,30.649v6.487l0.461,0.343C184.407,55.263,189,64.607,189,74.489v82.863
	C189,174.255,176.06,188,160.17,188H41.83z M43.8,22.426c-11.205-0.028-20.318,9.019-20.374,20.224v114.702
	c0,11.146,8.255,20.223,18.396,20.223H160.17c10.149,0,18.404-9.068,18.404-20.223V74.489c0-11.147-8.255-20.224-18.404-20.224
	H56.414c-2.879-0.001-5.212-2.336-5.211-5.215c0.001-2.877,2.333-5.21,5.211-5.211H160.17c1.441,0,2.823,0.226,4.291,0.469
	l1.341,0.218l0.033-1.358v-0.519c-0.022-11.172-9.084-20.219-20.257-20.224H43.8z"/>
<path d="M93.476,161.904c-3.333,0-6.028-2.562-6.028-5.714v-8.257h-30.8c-3.333,0-6.028-2.563-6.028-5.715
	c0-3.143,2.705-5.714,6.028-5.714h30.8V120h-30.8c-3.333,0-6.028-2.563-6.028-5.715s2.705-5.714,6.028-5.714h30.8v-7.295
	l-0.886-0.296c-2.165-0.72-4.198-1.788-6.019-3.162L52.886,76.838c-2.463-1.817-2.987-5.288-1.169-7.751
	c0.072-0.098,0.148-0.194,0.227-0.287c1.184-1.372,2.912-2.152,4.724-2.133c1.353-0.008,2.67,0.427,3.752,1.238l27.657,20.981
	c1.556,1.172,3.452,1.804,5.4,1.8c1.948,0.005,3.845-0.627,5.4-1.8l27.657-20.962c2.631-1.934,6.302-1.551,8.477,0.886
	c1.975,2.333,1.684,5.824-0.648,7.798c-0.099,0.083-0.2,0.164-0.305,0.24l-27.638,20.981c-1.762,1.333-3.79,2.391-6.028,3.143
	l-0.886,0.305v7.295h30.8c3.324,0,6.029,2.562,6.029,5.714c0,3.144-2.705,5.715-6.029,5.715h-30.8v16.505h30.8
	c3.324,0,6.029,2.571,6.029,5.714c0,3.152-2.705,5.715-6.029,5.715h-30.8v8.257C99.505,159.343,96.8,161.904,93.476,161.904z"/>
</svg>
