<?xml version="1.0" encoding="utf-8"?>
<!-- Generator: Adobe Illustrator 16.0.0, SVG Export Plug-In . SVG Version: 6.00 Build 0)  -->
<!DOCTYPE svg PUBLIC "-//W3C//DTD SVG 1.1//EN" "http://www.w3.org/Graphics/SVG/1.1/DTD/svg11.dtd">
<svg version="1.1" id="图层_1" xmlns="http://www.w3.org/2000/svg" xmlns:xlink="http://www.w3.org/1999/xlink" x="0px" y="0px"
	 width="204.094px" height="204.094px" viewBox="-2.047 -2.047 204.094 204.094"
	 enable-background="new -2.047 -2.047 204.094 204.094" xml:space="preserve">
<path d="M150,130c-1.25-1.25-3.563-2.594-5.871-2.018c-1.221,0.306-2.17,1.055-2.878,1.924c-0.801,0.982-1.251,2.261-1.251,3.844
	c0,2.5,1.25,3.75,2.5,5l0,0l0,0c15,11.25,25,28.75,26.25,48.75H180C178.75,163.75,167.5,143.75,150,130 M102.5,108.75
	C80,108.75,61.25,90,61.25,67.5C60,43.75,78.75,25,102.5,25c22.5,0,41.25,18.75,41.25,41.25C143.75,90,125,108.75,102.5,108.75z
	 M156.25,67.5c0-30-23.75-55-55-55c-28.75,0-53.75,23.75-53.75,55c0,20,11.25,37.5,27.5,47.5c-31.25,8.75-53.75,37.5-55,72.5h11.25
	c1.25-36.25,31.25-65,67.5-66.25H100c1.25,0,1.25,0,2.5,0C132.5,121.25,156.25,97.5,156.25,67.5z"/>
</svg>
