<?xml version="1.0" encoding="utf-8"?>
<!-- Generator: Adobe Illustrator 16.0.0, SVG Export Plug-In . SVG Version: 6.00 Build 0)  -->
<!DOCTYPE svg PUBLIC "-//W3C//DTD SVG 1.1//EN" "http://www.w3.org/Graphics/SVG/1.1/DTD/svg11.dtd">
<svg version="1.1" id="图层_1" xmlns="http://www.w3.org/2000/svg" xmlns:xlink="http://www.w3.org/1999/xlink" x="0px" y="0px"
	 width="200px" height="200px" viewBox="0 0 200 200" enable-background="new 0 0 200 200" xml:space="preserve">
<path d="M43.75,71.5h25v-25h-25V71.5z M18.75,184h75v-75h-75V184z M31.25,121.5h50v50h-50V121.5z M43.75,159h25v-25h-25V159z
	 M106.25,21.5v75h75v-75H106.25z M168.75,84h-50V34h50V84z M168.75,134h-25v-25h-25h-12.5v25v50h12.5v-50h12.5v12.5h37.5h12.5V109
	h-12.5V134z M18.75,96.5h75v-75h-75V96.5z M31.25,34h50v50h-50V34z M156.25,46.5h-25v25h25V46.5z M168.75,184h12.5v-25h-12.5V184z
	 M143.75,184h12.5v-25h-12.5V184z"/>
</svg>
