<?xml version="1.0" encoding="utf-8"?>
<!-- Generator: Adobe Illustrator 16.0.0, SVG Export Plug-In . SVG Version: 6.00 Build 0)  -->
<!DOCTYPE svg PUBLIC "-//W3C//DTD SVG 1.1//EN" "http://www.w3.org/Graphics/SVG/1.1/DTD/svg11.dtd">
<svg version="1.1" id="图层_1" xmlns="http://www.w3.org/2000/svg" xmlns:xlink="http://www.w3.org/1999/xlink" x="0px" y="0px"
	 width="200px" height="200px" viewBox="0 0 200 200" enable-background="new 0 0 200 200" xml:space="preserve">
<path d="M189.58,180.395l-31.064-33.211c12.592-15.149,19.517-34.037,19.517-53.918c0-46.643-37.99-84.598-84.688-84.598
	c-46.687,0-84.676,37.948-84.676,84.598c0,46.649,37.99,84.596,84.682,84.596c12.234-0.006,24.03-2.557,35.059-7.573
	c3.276-1.491,4.723-5.351,3.231-8.617c-1.492-3.28-5.375-4.731-8.625-3.228c-9.336,4.242-19.313,6.396-29.671,6.402
	c-39.508,0-71.648-32.109-71.648-71.582c0-39.464,32.14-71.582,71.648-71.582c39.513,0,71.659,32.11,71.659,71.582
	c0,18.58-7.093,36.185-19.965,49.572c-2.494,2.589-2.41,6.71,0.176,9.202c0.196,0.188,0.938,0.983,1.16,1.217l33.69,36.015
	c1.275,1.375,3.016,2.064,4.754,2.064c1.597,0,3.193-0.58,4.449-1.759C191.893,187.136,192.036,183.018,189.58,180.395
	L189.58,180.395z"/>
</svg>
