<?xml version="1.0" standalone="no"?><!DOCTYPE svg PUBLIC "-//W3C//DTD SVG 1.1//EN" "http://www.w3.org/Graphics/SVG/1.1/DTD/svg11.dtd"><svg t="1560149927382" class="icon" style="" viewBox="0 0 1024 1024" version="1.1" xmlns="http://www.w3.org/2000/svg" p-id="7669" xmlns:xlink="http://www.w3.org/1999/xlink" width="200" height="200"><defs><style type="text/css"></style></defs><path d="M799 429.7H219c-49.6 0-90-40.4-90-90v-120c0-49.6 40.4-90 90-90h580c49.6 0 90 40.4 90 90v120c0 49.6-40.4 90-90 90z m-580-240c-16.5 0-30 13.5-30 30v120c0 16.5 13.5 30 30 30h580c16.5 0 30-13.5 30-30v-120c0-16.5-13.5-30-30-30H219zM819 512c-16.6 0-30-13.4-30-30v-74.8c0-16.6 13.4-30 30-30s30 13.4 30 30V482c0 16.6-13.4 30-30 30z m-60 372.5H259c-49.6 0-90-40.4-90-90V405.7c0-16.6 13.4-30 30-30s30 13.4 30 30v388.8c0 16.5 13.5 30 30 30h500c16.5 0 30-13.5 30-30v-49.4c0-16.6 13.4-30 30-30s30 13.4 30 30v49.4c0 49.6-40.4 90-90 90z m26.3-245.4H569c-13.8 0-25-11.2-25-25s11.2-25 25-25h216.3c13.8 0 25 11.2 25 25s-11.1 25-25 25z m41.4-10.7c-5.5 0-11-1.8-15.6-5.5l-102.6-82.3c-10.8-8.6-12.5-24.4-3.8-35.1 8.6-10.8 24.4-12.5 35.1-3.8L842.4 584c10.8 8.6 12.5 24.4 3.8 35.1-4.9 6.1-12.2 9.3-19.5 9.3zM741 739.9c-5.4 0-10.8-1.7-15.4-5.3-10.9-8.5-12.8-24.2-4.3-35.1L801.5 597c8.5-10.9 24.2-12.8 35.1-4.3 10.9 8.5 12.8 24.2 4.3 35.1l-80.2 102.5c-5 6.3-12.3 9.6-19.7 9.6z" p-id="7670"></path></svg>