<?xml version="1.0" encoding="utf-8"?>
<!-- Generator: Adobe Illustrator 16.0.0, SVG Export Plug-In . SVG Version: 6.00 Build 0)  -->
<!DOCTYPE svg PUBLIC "-//W3C//DTD SVG 1.1//EN" "http://www.w3.org/Graphics/SVG/1.1/DTD/svg11.dtd">
<svg version="1.1" id="图层_1" xmlns="http://www.w3.org/2000/svg" xmlns:xlink="http://www.w3.org/1999/xlink" x="0px" y="0px"
	 width="200px" height="200px" viewBox="0 0 200 200" enable-background="new 0 0 200 200" xml:space="preserve">
<g>
	<path d="M167.777,43.79h-11.469c0.047-1.788,0.028-3.896,0.028-6.386c0-11.982-9.703-17.168-19.049-17.168H30.037
		c-8.239,0-15.787,3.014-16.56,12.264v135.461c2.51,7.766,9.791,13.385,18.39,13.385h135.912c10.677,0,18.332-8.656,18.332-19.33
		V63.121C186.109,52.445,178.455,43.79,167.777,43.79z M31.404,31.05h105.885c4.002,0,6.859,2.838,6.859,6.337v7.337H31.404
		c-4.002,0-6.859-3.839-6.859-7.337C24.545,33.889,27.402,31.05,31.404,31.05z M174.904,125.968h-51.088V98.972h51.088V125.968z
		 M174.904,87.572H122.08c-5.338,0-9.666,4.328-9.666,9.665v27.731c0,9.011,4.328,12.4,9.666,12.4h52.824v21.911
		c0,5.338-4.328,9.666-9.666,9.666H34.407c-5.338,0-9.666-4.328-9.666-9.666V56.19h140.497c5.339,0,9.666,4.328,9.666,9.666V87.572
		L174.904,87.572z"/>
	<circle cx="139.75" cy="112.5" r="7.25"/>
</g>
</svg>
