<svg xmlns="http://www.w3.org/2000/svg" xmlns:xlink="http://www.w3.org/1999/xlink" viewBox="0 0 200 200">
<path d="M125.232,119.137L125.232,119.137c2.424,0,4.6-2.176,4.6-4.6s-2.176-4.598-4.6-4.598h-18.396l16.844-17.155
	c1.863-1.865,1.863-4.6,0-6.464c-1.865-1.864-4.6-1.864-6.465,0l-14.42,15.104l-14.73-15.042c-1.865-1.865-4.6-1.865-6.465,0
	c-1.863,1.864-1.863,4.599,0,6.464L98.444,110H80.109c-2.424,0-4.599,2.176-4.599,4.6s2.175,4.6,4.599,4.6h17.776v4.6H80.109
	c-2.424,0-4.599,2.176-4.599,4.6s2.175,4.6,4.599,4.6h17.776v13.176c0,1.865,2.176,3.357,4.599,3.357c2.424,0,4.6-1.555,4.6-3.357
	v-13.176h17.775c2.424,0,4.6-2.176,4.6-4.6s-2.176-4.6-4.6-4.6h-17.775v-4.6h18.148V119.137z M167.188,29.698H38.217
	c-8.267,0-15.041,6.775-15.041,15.041V64.69c0,8.267,6.774,15.042,15.041,15.042H49.53v80.862c0,8.268,6.774,15.041,15.041,15.041
	h76.636c8.266,0,15.041-6.773,15.041-15.041V79.669h11.373c8.268,0,14.73-6.774,14.73-15.041V44.677
	C182.229,36.473,175.453,29.698,167.188,29.698z M146.055,161.154L146.055,161.154c0,4.287-3.979,4.91-8.578,4.91H64.571
	c-2.734,0-4.91-2.176-4.91-4.91V69.539c0-2.735,2.176-4.91,4.91-4.91h76.636c2.734,0,4.91,2.175,4.91,4.91v91.616H146.055z
	 M172.408,44.118V65.25c0,2.734-2.176,4.91-4.91,4.91h-11.934c0-1.554-0.311-3.978-0.934-5.532c3.979,0,7.334-3.356,7.334-7.334
	c0-3.978-3.355-7.334-7.334-7.334H50.461c-3.978,0-7.334,3.356-7.334,7.334c0,3.978,3.356,7.334,7.334,7.334
	c-0.621,1.554-0.932,3.667-0.932,5.532H37.596c-2.735,0-4.91-2.176-4.91-4.91V44.118c0-2.735,2.175-4.91,4.91-4.91h130.523
	c2.734,0,4.91,2.175,4.91,4.91H172.408z"/>
</svg>
